<?xml version="1.0" encoding="UTF-8" standalone="no"?>
<!DOCTYPE svg PUBLIC "-//W3C//DTD SVG 1.1//EN"
 "http://www.w3.org/Graphics/SVG/1.1/DTD/svg11.dtd">
<!-- Generated by graphviz version 2.44.1 (20200629.0846)
 -->
<!-- Title: Self Hosted Pages: 1 -->
<svg width="878pt" height="901pt"
 viewBox="0.00 0.00 878.00 901.00" xmlns="http://www.w3.org/2000/svg" xmlns:xlink="http://www.w3.org/1999/xlink">
<g id="graph0" class="graph" transform="scale(1 1) rotate(0) translate(144 757)">
<title>Self Hosted</title>
<text text-anchor="middle" x="295" y="-9" font-family="Sans-Serif" font-size="15.00" fill="#2d3436">Self Hosted</text>
<g id="clust1" class="cluster">
<title>cluster_VM</title>
<path fill="#e5f5fd" stroke="#aeb6be" d="M159,-33C159,-33 570,-33 570,-33 576,-33 582,-39 582,-45 582,-45 582,-593 582,-593 582,-599 576,-605 570,-605 570,-605 159,-605 159,-605 153,-605 147,-599 147,-593 147,-593 147,-45 147,-45 147,-39 153,-33 159,-33"/>
<text text-anchor="middle" x="164.5" y="-591.4" font-family="Sans-Serif" font-size="12.00" fill="#2d3436">VM</text>
</g>
<g id="clust2" class="cluster">
<title>cluster_Docker Compose</title>
<path fill="#ebf3e7" stroke="#aeb6be" d="M314,-41C314,-41 562,-41 562,-41 568,-41 574,-47 574,-53 574,-53 574,-564 574,-564 574,-570 568,-576 562,-576 562,-576 314,-576 314,-576 308,-576 302,-570 302,-564 302,-564 302,-53 302,-53 302,-47 308,-41 314,-41"/>
<text text-anchor="middle" x="357" y="-562.4" font-family="Sans-Serif" font-size="12.00" fill="#2d3436">Docker Compose</text>
</g>
<!-- 62da36fd52d84b1aa1c9c867e9e565cf -->
<g id="node1" class="node">
<title>62da36fd52d84b1aa1c9c867e9e565cf</title>
<image xlink:href="/Users/suman/Library/Caches/pypoetry/virtualenvs/hacktj-live-4kdyLsBP-py3.9/lib/python3.9/site-packages/resources/saas/cdn/cloudflare.png" width="101px" height="45.3711px" preserveAspectRatio="xMinYMin meet" x="0" y="-320.686"/>
<text text-anchor="middle" x="50.5" y="-233.1" font-family="Sans-Serif" font-size="13.00" fill="#2d3436">Cloudflare</text>
</g>
<!-- 574ecac4ff8c4ccbb29ba6a19392832b -->
<g id="node6" class="node">
<title>574ecac4ff8c4ccbb29ba6a19392832b</title>
<image xlink:href="/Users/suman/Library/Caches/pypoetry/virtualenvs/hacktj-live-4kdyLsBP-py3.9/lib/python3.9/site-packages/resources/onprem/network/nginx.png" width="101px" height="101px" preserveAspectRatio="xMinYMin meet" x="155" y="-348.5"/>
<text text-anchor="middle" x="205.5" y="-233.1" font-family="Sans-Serif" font-size="13.00" fill="#2d3436">NGINX</text>
</g>
<!-- 62da36fd52d84b1aa1c9c867e9e565cf&#45;&gt;574ecac4ff8c4ccbb29ba6a19392832b -->
<g id="edge4" class="edge">
<title>62da36fd52d84b1aa1c9c867e9e565cf&#45;&gt;574ecac4ff8c4ccbb29ba6a19392832b</title>
<path fill="none" stroke="#7b8894" d="M101.25,-298C101.25,-298 144.9,-298 144.9,-298"/>
<polygon fill="#7b8894" stroke="#7b8894" points="144.9,-301.5 154.9,-298 144.9,-294.5 144.9,-301.5"/>
</g>
<!-- 7d0251a347ef47f3a5d6d255880c04eb -->
<g id="node2" class="node">
<title>7d0251a347ef47f3a5d6d255880c04eb</title>
<image xlink:href="/Users/suman/Library/Caches/pypoetry/virtualenvs/hacktj-live-4kdyLsBP-py3.9/lib/python3.9/site-packages/resources/programming/framework/django.png" width="101px" height="101px" preserveAspectRatio="xMinYMin meet" x="310" y="-348.5"/>
<text text-anchor="middle" x="360.5" y="-233.1" font-family="Sans-Serif" font-size="13.00" fill="#2d3436">Live</text>
</g>
<!-- 8c2c0e3a75014b52921d5b72e34f117e -->
<g id="node3" class="node">
<title>8c2c0e3a75014b52921d5b72e34f117e</title>
<image xlink:href="/Users/suman/Library/Caches/pypoetry/virtualenvs/hacktj-live-4kdyLsBP-py3.9/lib/python3.9/site-packages/resources/onprem/database/postgresql.png" width="101px" height="101px" preserveAspectRatio="xMinYMin meet" x="465" y="-168.5"/>
<text text-anchor="middle" x="515.5" y="-53.1" font-family="Sans-Serif" font-size="13.00" fill="#2d3436">PostgreSQL</text>
</g>
<!-- 7d0251a347ef47f3a5d6d255880c04eb&#45;&gt;8c2c0e3a75014b52921d5b72e34f117e -->
<g id="edge1" class="edge">
<title>7d0251a347ef47f3a5d6d255880c04eb&#45;&gt;8c2c0e3a75014b52921d5b72e34f117e</title>
<path fill="none" stroke="#7b8894" d="M361,-229.44C361,-178.57 361,-118 361,-118 361,-118 454.91,-118 454.91,-118"/>
<polygon fill="#7b8894" stroke="#7b8894" points="454.91,-121.5 464.91,-118 454.91,-114.5 454.91,-121.5"/>
</g>
<!-- 777c6b89fa35464b8381be1b143a6ce4 -->
<g id="node4" class="node">
<title>777c6b89fa35464b8381be1b143a6ce4</title>
<image xlink:href="/Users/suman/Library/Caches/pypoetry/virtualenvs/hacktj-live-4kdyLsBP-py3.9/lib/python3.9/site-packages/resources/onprem/inmemory/memcached.png" width="101px" height="101px" preserveAspectRatio="xMinYMin meet" x="465" y="-348.5"/>
<text text-anchor="middle" x="515.5" y="-233.1" font-family="Sans-Serif" font-size="13.00" fill="#2d3436">Memcached</text>
</g>
<!-- 7d0251a347ef47f3a5d6d255880c04eb&#45;&gt;777c6b89fa35464b8381be1b143a6ce4 -->
<g id="edge2" class="edge">
<title>7d0251a347ef47f3a5d6d255880c04eb&#45;&gt;777c6b89fa35464b8381be1b143a6ce4</title>
<path fill="none" stroke="#7b8894" d="M411.25,-298C411.25,-298 454.9,-298 454.9,-298"/>
<polygon fill="#7b8894" stroke="#7b8894" points="454.9,-301.5 464.9,-298 454.9,-294.5 454.9,-301.5"/>
</g>
<!-- de29cf7661524f9ba8f4c41175e6bab3 -->
<g id="node5" class="node">
<title>de29cf7661524f9ba8f4c41175e6bab3</title>
<image xlink:href="/Users/suman/Library/Caches/pypoetry/virtualenvs/hacktj-live-4kdyLsBP-py3.9/lib/python3.9/site-packages/resources/onprem/inmemory/redis.png" width="101px" height="101px" preserveAspectRatio="xMinYMin meet" x="465" y="-528.5"/>
<text text-anchor="middle" x="515.5" y="-413.1" font-family="Sans-Serif" font-size="13.00" fill="#2d3436">Redis</text>
</g>
<!-- 7d0251a347ef47f3a5d6d255880c04eb&#45;&gt;de29cf7661524f9ba8f4c41175e6bab3 -->
<g id="edge3" class="edge">
<title>7d0251a347ef47f3a5d6d255880c04eb&#45;&gt;de29cf7661524f9ba8f4c41175e6bab3</title>
<path fill="none" stroke="#7b8894" d="M361,-366.56C361,-417.43 361,-478 361,-478 361,-478 454.91,-478 454.91,-478"/>
<polygon fill="#7b8894" stroke="#7b8894" points="454.91,-481.5 464.91,-478 454.91,-474.5 454.91,-481.5"/>
</g>
<!-- 574ecac4ff8c4ccbb29ba6a19392832b&#45;&gt;7d0251a347ef47f3a5d6d255880c04eb -->
<g id="edge5" class="edge">
<title>574ecac4ff8c4ccbb29ba6a19392832b&#45;&gt;7d0251a347ef47f3a5d6d255880c04eb</title>
<path fill="none" stroke="#7b8894" d="M256.25,-298C256.25,-298 299.9,-298 299.9,-298"/>
<polygon fill="#7b8894" stroke="#7b8894" points="299.9,-301.5 309.9,-298 299.9,-294.5 299.9,-301.5"/>
</g>
</g>
</svg>
